# Blender v2.80 (sub 35) OBJ File: 'arcadecab.blend'
# www.blender.org
o Cube
v 1.000000 0.000000 -1.000000
v 1.000000 0.000000 0.763760
v -1.000000 0.000000 0.763760
v -1.000000 0.000000 -1.000000
v 1.000000 4.000000 -0.585145
v 1.000000 3.987148 0.684032
v -1.000000 3.987148 0.684032
v -1.000000 4.000000 -0.585146
v 1.000000 3.600000 -1.000000
v 0.999999 3.609580 0.551962
v -1.000000 3.609581 0.551961
v -1.000000 3.600000 -1.000000
v 1.000000 1.941367 -1.000000
v 1.000000 1.941367 1.000000
v -1.000000 1.941367 1.000000
v -1.000000 1.941367 -1.000000
v 1.000000 3.531933 -1.000000
v 0.999999 3.516784 0.059112
v -1.000000 3.516784 0.059111
v -1.000000 3.531933 -1.000000
v 1.000000 2.131043 -1.000000
v 1.000000 2.023151 0.403208
v -1.000000 2.023151 0.403208
v -1.000000 2.131043 -1.000000
v 1.000000 1.573684 -1.000000
v 1.000000 1.573684 1.000000
v -1.000000 1.573684 1.000000
v -1.000000 1.573684 -1.000000
v 1.000000 1.493197 -1.000000
v 1.000000 1.493197 0.763760
v -1.000000 1.493197 0.763760
v -1.000000 1.493197 -1.000000
v 1.000000 3.712500 -1.000000
v 0.999999 3.715771 0.589107
v -1.000000 3.715771 0.589106
v -1.000000 3.712500 -1.000000
vt 0.575258 0.643349
vt 0.560259 0.659755
vt 0.560259 0.643349
vt 0.588612 0.671911
vt 0.584212 0.661911
vt 0.588612 0.661911
vt 0.910654 0.999935
vt 0.690163 0.928070
vt 0.997256 0.928070
vt 0.500000 0.812500
vt -0.000000 0.718750
vt 0.500000 0.718750
vt 0.414186 0.333333
vt 0.414186 0.333333
vt 0.414186 0.333333
vt 0.585312 0.661911
vt 0.576961 0.654445
vt 0.585312 0.654445
vt 0.585312 0.643911
vt 0.576961 0.643349
vt 0.585312 0.643349
vt 0.414186 0.333333
vt 0.414186 0.333333
vt 0.414186 0.333333
vt 0.500000 0.546875
vt -0.000000 0.687500
vt 0.000000 0.546875
vt 0.997256 0.899948
vt 0.776164 0.879147
vt 0.997256 0.882934
vt 0.997256 0.485344
vt 0.579752 0.393435
vt 0.997256 0.393435
vt 0.500000 0.093750
vt -0.000000 -0.000000
vt 0.500000 -0.000000
vt 0.414186 0.333333
vt 0.414186 0.333333
vt 0.414186 0.333333
vt 0.585312 0.652204
vt 0.576961 0.651256
vt 0.585312 0.651256
vt 0.585312 0.644251
vt 0.576961 0.643911
vt 0.997256 0.532757
vt 0.704334 0.505787
vt 0.530117 0.632208
vt 0.585508 0.692792
vt 0.530117 0.692792
vt 0.414186 0.333333
vt 0.414186 0.333333
vt 0.414186 0.333333
vt 0.500000 1.000000
vt 0.000000 0.812500
vt 0.500000 0.812500
vt 0.579752 0.485344
vt 0.576961 0.644251
vt 0.414186 0.333333
vt 0.414186 0.333333
vt 0.000000 0.000000
vt 0.500000 0.093750
vt -0.000000 0.093750
vt 0.629068 0.373316
vt 0.997256 0.373316
vt 0.585312 0.654043
vt 0.576961 0.652204
vt 0.997256 0.000065
vt 0.629068 0.000065
vt 0.500000 0.546875
vt 0.000000 0.000000
vt 0.500000 0.000000
vt 0.414186 0.333333
vt 0.414186 0.333333
vt 0.576961 0.654043
vt 0.590258 0.661911
vt 0.414186 0.333333
vt 0.500000 0.687500
vt 0.690163 0.899948
vt 0.575258 0.659755
vt 0.584212 0.671911
vt 0.690163 0.999935
vt 0.000000 0.812500
vt 0.414186 0.333333
vt 0.576961 0.661911
vt -0.000000 0.093750
vt 0.585508 0.632208
vt 0.000000 1.000000
vt 0.500000 0.000000
vt 0.000000 0.546875
vt 0.590258 0.671911
vn 0.5773 -0.5773 0.5773
vn -0.5773 -0.5773 -0.5773
vn 0.5773 -0.5773 -0.5773
vn -0.6448 0.7307 -0.2244
vn 0.5621 0.4752 0.6769
vn 0.6448 0.7307 -0.2244
vn 0.7071 -0.2335 0.6674
vn 0.6161 0.3654 -0.6978
vn -0.7071 -0.2335 0.6674
vn -0.6161 0.3654 -0.6978
vn -0.7071 0.0000 -0.7071
vn 0.7071 0.0000 -0.7071
vn -0.9092 -0.2278 0.3484
vn 0.9092 -0.2279 0.3484
vn -0.6099 -0.6008 0.5166
vn 0.5966 -0.4671 0.6526
vn 0.5848 0.5332 0.6113
vn -0.5966 -0.4671 0.6526
vn -0.5848 0.5332 0.6113
vn 0.8596 0.3772 0.3446
vn -0.8596 0.3772 0.3446
vn -0.8640 -0.2930 0.4094
vn 0.8640 -0.2930 0.4094
vn -0.5773 -0.5773 0.5773
vn 0.6099 -0.6008 0.5166
vn -0.5621 0.4752 0.6769
s 1
f 2/1/1 4/2/2 1/3/3
f 8/4/4 6/5/5 5/6/6
f 5/7/6 34/8/7 33/9/8
f 6/10/5 35/11/9 34/12/7
f 35/13/9 8/14/4 36/15/10
f 1/16/3 32/17/11 29/18/12
f 9/19/12 36/20/10 33/21/8
f 19/22/13 12/23/11 20/24/11
f 18/25/14 11/26/15 19/27/13
f 9/28/12 18/29/14 17/30/12
f 13/31/12 26/32/16 25/33/12
f 14/34/17 27/35/18 26/36/16
f 15/37/19 28/38/11 27/39/18
f 13/40/12 24/41/11 21/42/12
f 17/43/12 12/44/11 9/19/12
f 21/45/12 18/29/14 22/46/20
f 18/47/14 23/48/21 22/49/20
f 19/22/13 24/50/11 23/51/21
f 23/51/21 16/52/11 15/37/19
f 22/53/20 15/54/19 14/55/17
f 13/31/12 22/46/20 14/56/17
f 21/42/12 20/57/11 17/43/12
f 31/58/22 28/38/11 32/59/11
f 26/60/16 31/61/22 30/62/23
f 25/33/12 30/63/23 29/64/12
f 25/65/12 16/66/11 13/40/12
f 1/67/3 30/63/23 2/68/1
f 30/69/23 3/70/24 2/71/1
f 31/58/22 4/72/2 3/73/24
f 29/18/12 28/74/11 25/65/12
f 33/75/8 8/4/4 5/6/6
f 35/13/9 12/23/11 11/76/15
f 34/12/7 11/26/15 10/77/25
f 33/9/8 10/78/25 9/28/12
f 2/1/1 3/79/24 4/2/2
f 8/4/4 7/80/26 6/5/5
f 5/7/6 6/81/5 34/8/7
f 6/10/5 7/82/26 35/11/9
f 35/13/9 7/83/26 8/14/4
f 1/16/3 4/84/2 32/17/11
f 9/19/12 12/44/11 36/20/10
f 19/22/13 11/76/15 12/23/11
f 18/25/14 10/77/25 11/26/15
f 9/28/12 10/78/25 18/29/14
f 13/31/12 14/56/17 26/32/16
f 14/34/17 15/85/19 27/35/18
f 15/37/19 16/52/11 28/38/11
f 13/40/12 16/66/11 24/41/11
f 17/43/12 20/57/11 12/44/11
f 21/45/12 17/30/12 18/29/14
f 18/47/14 19/86/13 23/48/21
f 19/22/13 20/24/11 24/50/11
f 23/51/21 24/50/11 16/52/11
f 22/53/20 23/87/21 15/54/19
f 13/31/12 21/45/12 22/46/20
f 21/42/12 24/41/11 20/57/11
f 31/58/22 27/39/18 28/38/11
f 26/60/16 27/88/18 31/61/22
f 25/33/12 26/32/16 30/63/23
f 25/65/12 28/74/11 16/66/11
f 1/67/3 29/64/12 30/63/23
f 30/69/23 31/89/22 3/70/24
f 31/58/22 32/59/11 4/72/2
f 29/18/12 32/17/11 28/74/11
f 33/75/8 36/90/10 8/4/4
f 35/13/9 36/15/10 12/23/11
f 34/12/7 35/11/9 11/26/15
f 33/9/8 34/8/7 10/78/25
