# Blender v2.80 (sub 35) OBJ File: 'dummy.blend'
# www.blender.org
o Cube
v 0.281745 2.506922 -0.065713
v 0.085491 0.000000 -0.148066
v 0.184649 2.506922 0.165676
v -0.011605 0.000000 0.083324
v 0.067524 2.506922 -0.155605
v -0.128730 0.000000 -0.237957
v -0.029572 2.506922 0.075784
v -0.225826 0.000000 -0.006568
v 1.152042 1.706598 0.327145
v -0.848804 2.018389 -0.512453
v 1.074686 1.706598 0.511492
v -0.926160 2.018389 -0.328106
v 1.139828 1.890166 0.322019
v -0.861018 2.201957 -0.517578
v 1.062472 1.890166 0.506367
v -0.938374 2.201957 -0.333231
v -0.006621 2.108224 0.086532
v 0.338425 2.205570 0.313260
v -0.021650 2.422128 0.371446
v -0.208656 2.469466 -0.006347
v 0.035851 2.282161 -0.298019
v 0.373962 2.119066 -0.100489
v 0.349640 2.626978 0.360508
v 0.011529 2.790072 0.162978
v 0.047067 2.703569 -0.250771
v 0.407141 2.487010 -0.308957
v 0.594147 2.439672 0.068836
v 0.324381 2.792777 0.026236
v 0.195410 1.271841 0.002545
v 0.598189 0.907362 0.301415
v -0.016644 0.872654 0.296600
v -0.479100 1.029049 -0.166220
v 0.036684 0.848650 -0.334179
v 0.604665 0.937174 -0.101612
v 0.229551 1.983563 0.372460
v -0.430290 2.161934 0.074025
v -0.429851 2.166058 -0.339108
v 0.230260 1.990236 -0.296010
v 0.561595 2.052607 0.111788
v 0.124112 2.296570 0.042485
vt 0.786357 0.439453
vt 0.786357 0.439453
vt 0.786357 0.439453
vt 0.786357 0.439453
vt 0.786357 0.439453
vt 0.786357 0.439453
vt 0.786357 0.439453
vt 0.786357 0.439453
vt 0.786357 0.439453
vt 0.786357 0.439453
vt 0.786357 0.439453
vt 0.786357 0.439453
vt 0.786357 0.439453
vt 0.786357 0.439453
vt 0.786357 0.439453
vt 0.786357 0.439453
vt 0.817479 0.624724
vt 0.992196 0.730164
vt 0.832275 0.797683
vt 0.819539 0.417767
vt 0.827642 0.413089
vt 0.819539 0.408410
vt 0.663208 0.758308
vt 0.827642 0.394374
vt 0.819539 0.389695
vt 0.819539 0.399053
vt 0.827642 0.403731
vt 0.811435 0.413089
vt 0.945907 0.928914
vt 0.742582 0.946309
vt 0.811435 0.394374
vt 0.811435 0.403731
vt 0.820368 0.434251
vt 0.808063 0.437794
vt 0.811825 0.427859
vt 0.811435 0.385017
vt 0.803331 0.426238
vt 0.588285 0.954121
vt 0.791610 0.936727
vt 0.710717 1.001777
vt 0.803331 0.389695
vt 0.803331 0.399053
vt 0.803331 0.408410
vt 0.803281 0.422446
vt 0.795177 0.417767
vt 0.795177 0.427124
vt 0.803281 0.413089
vt 0.795177 0.408410
vt 0.803281 0.385017
vt 0.795177 0.380338
vt 0.795177 0.389695
vt 0.803281 0.394374
vt 0.795177 0.399053
vt 0.803281 0.403731
vt 0.787074 0.413089
vt 0.314250 0.043059
vt 0.706941 0.082820
vt 0.440412 0.762988
vt -0.110965 0.114349
vt -0.029112 0.852724
vt 0.787074 0.394374
vt 0.787074 0.403731
vt 0.706941 0.827197
vt 0.765470 0.166393
vt 0.798544 0.464743
vt 0.691965 0.455301
vt 0.787074 0.422446
vt 0.778970 0.417767
vt 0.787074 0.431803
vt 0.778970 0.427124
vt 0.787074 0.385017
vt 0.778970 0.389695
vt 0.778970 0.399053
vt 0.778970 0.408410
vn -0.2821 0.5989 -0.7495
vn 0.3348 0.5544 0.7619
vn 0.7782 0.5544 -0.2949
vn 0.2821 -0.5989 0.7495
vn -0.7325 0.5989 0.3237
vn -0.7782 -0.5544 0.2949
vn -0.3348 -0.5544 -0.7619
vn 0.7325 -0.5989 -0.3237
vn 0.7731 0.5506 -0.3149
vn 0.2985 -0.6027 0.7400
vn 0.7371 -0.6027 -0.3054
vn -0.7731 -0.5506 0.3149
vn 0.3169 0.5506 0.7722
vn -0.7371 0.6027 0.3054
vn -0.2984 0.6027 -0.7400
vn -0.3169 -0.5506 -0.7722
vn -0.4942 -0.8585 0.1370
vn 0.3611 -0.6172 0.6990
vn -0.5314 -0.0804 0.8433
vn 0.4492 -0.8316 -0.3265
vn -0.9949 0.0369 -0.0932
vn -0.3889 -0.4274 -0.8162
vn 0.9969 0.0141 0.0768
vn 0.4045 0.4390 0.8022
vn -0.4468 0.8345 0.3225
vn -0.3296 0.6356 -0.6980
vn 0.5495 0.1332 -0.8248
vn 0.4298 0.8998 -0.0750
vn -0.0761 -0.9970 0.0113
vn 0.5092 -0.7286 0.4581
vn -0.2065 -0.8879 0.4110
vn 0.5578 -0.7393 -0.3772
vn -0.7693 -0.6175 -0.1636
vn 0.0080 -0.9147 -0.4040
vn 0.8403 0.5319 0.1046
vn 0.0973 0.3570 0.9290
vn -0.7012 0.5351 0.4712
vn -0.5533 0.5421 -0.6324
vn 0.4154 0.3692 -0.8314
vn 0.1823 0.9797 0.0833
s 1
f 5/1/1 3/2/2 1/3/3
f 4/4/4 7/5/5 8/6/6
f 8/6/6 5/1/1 6/7/7
f 2/8/8 8/6/6 6/7/7
f 1/3/3 4/4/4 2/8/8
f 5/1/1 2/8/8 6/7/7
f 13/9/9 11/10/10 9/11/11
f 12/12/12 15/13/13 16/14/14
f 15/13/13 14/15/15 16/14/14
f 14/15/15 12/12/12 16/14/14
f 10/16/16 11/10/10 12/12/12
f 13/9/9 10/16/16 14/15/15
f 17/17/17 18/18/18 19/19/19
f 18/20/18 17/21/17 22/22/20
f 17/17/17 19/19/19 20/23/21
f 17/24/17 20/25/21 21/26/22
f 17/27/17 21/26/22 22/22/20
f 18/20/18 22/22/20 27/28/23
f 19/19/19 18/18/18 23/29/24
f 20/23/21 19/19/19 24/30/25
f 21/26/22 20/25/21 25/31/26
f 22/22/20 21/26/22 26/32/27
f 18/33/18 27/34/23 23/35/24
f 19/19/19 23/29/24 24/30/25
f 20/25/21 24/36/25 25/31/26
f 21/26/22 25/31/26 26/32/27
f 22/22/20 26/32/27 27/28/23
f 23/35/24 27/34/23 28/37/28
f 24/38/25 23/39/24 28/40/28
f 25/31/26 24/36/25 28/41/28
f 26/32/27 25/31/26 28/42/28
f 27/28/23 26/32/27 28/43/28
f 29/44/29 30/45/30 31/46/31
f 30/45/30 29/47/29 34/48/32
f 29/49/29 31/50/31 32/51/33
f 29/52/29 32/51/33 33/53/34
f 29/54/29 33/53/34 34/48/32
f 30/45/30 34/48/32 39/55/35
f 31/56/31 30/57/30 35/58/36
f 32/59/33 31/56/31 36/60/37
f 33/53/34 32/51/33 37/61/38
f 34/48/32 33/53/34 38/62/39
f 30/57/30 39/63/35 35/58/36
f 31/56/31 35/58/36 36/60/37
f 32/64/33 36/65/37 37/66/38
f 33/53/34 37/61/38 38/62/39
f 34/48/32 38/62/39 39/55/35
f 35/67/36 39/55/35 40/68/40
f 36/69/37 35/67/36 40/70/40
f 37/61/38 36/71/37 40/72/40
f 38/62/39 37/61/38 40/73/40
f 39/55/35 38/62/39 40/74/40
f 5/1/1 7/5/5 3/2/2
f 4/4/4 3/2/2 7/5/5
f 8/6/6 7/5/5 5/1/1
f 2/8/8 4/4/4 8/6/6
f 1/3/3 3/2/2 4/4/4
f 5/1/1 1/3/3 2/8/8
f 13/9/9 15/13/13 11/10/10
f 12/12/12 11/10/10 15/13/13
f 15/13/13 13/9/9 14/15/15
f 14/15/15 10/16/16 12/12/12
f 10/16/16 9/11/11 11/10/10
f 13/9/9 9/11/11 10/16/16
