# Blender v2.80 (sub 35) OBJ File: 'sign.blend'
# www.blender.org
o Cube.001
v 0.090391 0.000000 -0.100000
v 0.090391 1.000000 -0.100000
v 0.090391 0.000000 0.100000
v 0.090391 1.000000 0.100000
v -0.090391 0.000000 -0.100000
v -0.090391 1.000000 -0.100000
v -0.090391 0.000000 0.100000
v -0.090391 1.000000 0.100000
v -0.800000 1.000000 0.100000
v -0.800000 2.000000 0.100000
v -0.800000 1.000000 -0.100000
v -0.800000 2.000000 -0.100000
v 0.800000 1.000000 0.100000
v 0.800000 2.000000 0.100000
v 0.800000 1.000000 -0.100000
v 0.800000 2.000000 -0.100000
vt 0.843750 0.500000
vt 1.000000 1.000000
vt 0.843750 1.000000
vt 0.843750 -0.000000
vt 1.000000 0.500000
vt 0.843750 0.500000
vt 0.843750 -0.000000
vt 1.000000 0.500000
vt 0.843750 0.500000
vt 0.843750 -0.000000
vt 1.000000 0.500000
vt 0.843750 0.500000
vt 0.539488 0.185384
vt 0.466757 0.265847
vt 0.466757 0.185384
vt 0.843750 0.500000
vt 1.000000 1.000000
vt 0.843750 1.000000
vt 0.859375 0.000000
vt 0.000000 0.500000
vt 0.000000 0.000000
vt 1.000000 1.000000
vt 0.843750 0.500000
vt 1.000000 0.500000
vt 0.859375 1.000000
vt 0.000000 0.500000
vt 0.859375 0.500000
vt 0.843750 0.500000
vt 1.000000 1.000000
vt 0.843750 1.000000
vt 1.000000 1.000000
vt 0.843750 0.500000
vt 1.000000 0.500000
vt 1.000000 0.500000
vt 1.000000 -0.000000
vt 1.000000 -0.000000
vt 1.000000 -0.000000
vt 0.539488 0.265847
vt 1.000000 0.500000
vt 0.859375 0.500000
vt 0.843750 1.000000
vt 0.000000 1.000000
vt 1.000000 0.500000
vt 0.843750 1.000000
vn 0.7071 0.0000 -0.7071
vn 0.5773 -0.5773 0.5773
vn 0.5773 -0.5773 -0.5773
vn 0.7071 0.0000 0.7071
vn -0.5773 -0.5773 0.5773
vn -0.7071 0.0000 0.7071
vn -0.5773 -0.5773 -0.5773
vn -0.7071 0.0000 -0.7071
vn -0.5773 0.5773 0.5773
vn -0.5773 0.5773 -0.5773
vn 0.5773 0.5773 -0.5773
vn 0.5773 0.5773 0.5773
s 1
f 2/1/1 3/2/2 1/3/3
f 4/4/4 7/5/5 3/6/2
f 8/7/6 5/8/7 7/9/5
f 6/10/8 1/11/3 5/12/7
f 7/13/5 1/14/3 3/15/2
f 10/16/9 11/17/7 9/18/5
f 12/19/10 15/20/3 11/21/7
f 16/22/11 13/23/2 15/24/3
f 14/25/12 9/26/5 13/27/2
f 15/28/3 9/29/5 11/30/7
f 12/31/10 14/32/12 16/33/11
f 2/1/1 4/34/4 3/2/2
f 4/4/4 8/35/6 7/5/5
f 8/7/6 6/36/8 5/8/7
f 6/10/8 2/37/1 1/11/3
f 7/13/5 5/38/7 1/14/3
f 10/16/9 12/39/10 11/17/7
f 12/19/10 16/40/11 15/20/3
f 16/22/11 14/41/12 13/23/2
f 14/25/12 10/42/9 9/26/5
f 15/28/3 13/43/2 9/29/5
f 12/31/10 10/44/9 14/32/12
