# Blender v2.80 (sub 35) OBJ File: 'house.blend'
# www.blender.org
o Cube
v 8.000000 4.000000 0.000000
v 8.000000 0.000000 0.000000
v 8.000000 4.000000 4.000000
v 8.000000 0.000000 4.000000
v 0.000000 4.000000 0.000000
v 0.000000 0.000000 0.000000
v 0.000000 4.000000 4.000000
v 0.000000 0.000000 4.000000
v 2.000000 0.000000 4.000000
v 2.000000 4.000000 4.000000
v 2.000000 0.000000 0.000000
v 2.000000 4.000000 0.000000
v 4.000000 0.000000 4.000000
v 4.000000 4.000000 0.000000
v 4.000000 4.000000 4.000000
v 4.000000 0.000000 0.000000
v 6.000000 0.000000 4.000000
v 6.000000 4.000000 0.000000
v 6.000000 4.000000 4.000000
v 6.000000 0.000000 0.000000
v 8.000000 3.400000 0.000000
v 0.000000 3.400000 4.000000
v 8.000000 3.400000 4.000000
v 0.000000 3.400000 0.000000
v 2.000000 3.400000 4.000000
v 2.000000 3.400000 0.000000
v 4.000000 3.400000 4.000000
v 4.000000 3.400000 0.000000
v 6.000000 3.400000 4.000000
v 6.000000 3.400000 0.000000
v 2.062034 0.105457 4.000000
v 3.937966 0.105457 4.000000
v 2.062034 3.294543 4.000000
v 3.937966 3.294543 4.000000
v 2.153055 0.105457 3.881264
v 3.846945 0.105457 3.881264
v 2.153055 3.294543 3.881264
v 3.846945 3.294543 3.881264
v 8.000000 1.700000 0.000000
v 8.000000 1.700000 4.000000
v 0.000000 1.700000 0.000000
v 2.000000 1.700000 4.000000
v 2.000000 1.700000 0.000000
v 4.000000 1.700000 4.000000
v 4.000000 1.700000 0.000000
v 6.000000 1.700000 4.000000
v 6.000000 1.700000 0.000000
v 0.000000 1.700000 4.000000
v 2.062034 1.700000 4.000000
v 3.937966 1.700000 4.000000
v 2.153055 1.700000 3.881264
v 3.846945 1.700000 3.881264
v 7.769982 3.315000 4.000000
v 6.230018 3.315000 4.000000
v 7.769982 1.785000 4.000000
v 6.230018 1.785000 4.000000
v 5.769982 3.315000 4.000000
v 4.230018 3.315000 4.000000
v 4.230018 1.785000 4.000000
v 5.769982 1.785000 4.000000
v 0.230018 1.785000 4.000000
v 0.230018 3.315000 4.000000
v 1.769982 3.315000 4.000000
v 1.769982 1.785000 4.000000
v -0.200000 4.000000 4.200000
v -0.200000 5.200000 2.000000
v -0.200000 4.000000 -0.200000
v 8.200000 4.000000 4.200000
v 8.200000 4.000000 -0.200000
v 8.200000 5.200000 2.000000
v 1.653550 4.000000 -0.200000
v 1.653549 4.000000 4.200000
v 1.653550 5.200000 2.000000
v 1.172425 4.311483 0.371053
v 0.281125 4.311483 0.371053
v 0.281125 4.888516 1.428947
v 1.172425 4.888516 1.428947
v 1.172425 6.146710 0.371053
v 0.281125 6.146710 0.371053
v 0.281125 6.146710 1.428947
v 1.172425 6.146710 1.428947
v 7.769982 3.315000 3.958270
v 6.230018 3.315000 3.958270
v 7.769982 1.785000 3.958270
v 6.230018 1.785000 3.958270
v 5.769982 3.315000 3.958270
v 4.230018 3.315000 3.958270
v 4.230018 1.785000 3.958270
v 5.769982 1.785000 3.958270
v 0.230018 1.785000 3.958270
v 0.230018 3.315000 3.958270
v 1.769982 3.315000 3.958270
v 1.769982 1.785000 3.958270
vt 0.246608 0.250189
vt 0.240045 0.261128
vt 0.240045 0.250189
vt 0.246608 0.261128
vt 0.240045 0.304885
vt 0.246608 0.304885
vt 0.235942 0.348642
vt 0.235942 0.304885
vt 0.202851 0.261128
vt 0.196288 0.304885
vt 0.196288 0.261128
vt 0.290365 0.294220
vt 0.283802 0.304885
vt 0.283802 0.294220
vt 0.290365 0.261128
vt 0.283802 0.272068
vt 0.283802 0.261128
vt 0.213790 0.304885
vt 0.202851 0.348642
vt 0.202851 0.304885
vt 0.246608 0.238703
vt 0.240045 0.238703
vt 0.246608 0.228037
vt 0.240045 0.228037
vt 0.290365 0.272068
vt 0.283802 0.283554
vt 0.225277 0.304885
vt 0.213790 0.348642
vt 0.246608 0.217371
vt 0.240045 0.217371
vt 0.290365 0.283554
vt 0.225277 0.348642
vt 0.265205 0.294220
vt 0.265205 0.283554
vt 0.221448 0.228037
vt 0.240045 0.228037
vt 0.265205 0.272068
vt 0.221448 0.238703
vt 0.221448 0.238703
vt 0.240045 0.238703
vt 0.265205 0.261128
vt 0.265205 0.304885
vt 0.177691 0.304885
vt 0.177691 0.261128
vt 0.221448 0.304885
vt 0.221448 0.261128
vt 0.240045 0.261128
vt 0.240045 0.250189
vt 0.240045 0.238703
vt 0.221448 0.238703
vt 0.221448 0.250189
vt 0.202851 0.250189
vt 0.221448 0.250189
vt 0.213790 0.348642
vt 0.221448 0.250189
vt 0.221448 0.238703
vt 0.225277 0.348642
vt 0.213790 0.348642
vt 0.202851 0.238703
vt 0.202851 0.238703
vt 0.240045 0.250189
vt 1.000000 0.500000
vt 0.500000 -0.000000
vt 1.000000 0.000000
vt 0.202851 0.238703
vt 0.202851 0.261128
vt 0.202851 0.250189
vt 0.159094 0.304885
vt 0.159094 0.261128
vt 0.246608 0.294220
vt 0.246608 0.272068
vt 0.246608 0.261128
vt 0.202851 0.228037
vt 0.246608 0.283554
vt 0.221448 0.217371
vt 0.202851 0.217371
vt 0.177691 0.304885
vt 0.240045 0.217371
vt 0.221448 0.228037
vt 0.221448 0.228037
vt 0.240045 0.238703
vt 0.240045 0.228037
vt 0.240045 0.250189
vt 0.221448 0.250189
vt 0.221448 0.261128
vt 0.500000 0.500000
vt 1.000000 1.000000
vt 0.500000 1.000000
vt 0.240045 0.250189
vt 0.221448 0.228037
vt 0.221448 0.217371
vt 0.221448 0.228037
vt 0.202851 0.173614
vt 0.246608 0.195493
vt 0.202851 0.217371
vt 0.393324 0.574609
vt 0.383449 0.585064
vt 0.383449 0.577367
vt 0.202851 0.261128
vt 0.246608 0.283007
vt 0.202851 0.304885
vt 0.393324 0.601546
vt 0.383449 0.604815
vt 0.383449 0.602636
vt 0.168750 0.304885
vt 0.168750 0.261128
vt 0.159094 0.304885
vt 0.159094 0.261128
vt 0.393324 0.590001
vt 0.383449 0.594939
vt 0.383449 0.575188
vt 0.393324 0.570250
vt 0.383449 0.575188
vt 0.246608 0.334159
vt 0.246608 0.348642
vt 0.246608 0.348642
vt 0.373573 0.585064
vt 0.375753 0.585064
vt 0.375753 0.585064
vt 0.393324 0.574609
vt 0.393324 0.604815
vt 0.393324 0.604815
vt 0.159094 0.261128
vt 0.168750 0.261128
vt 0.168750 0.261128
vt 0.246608 0.214804
vt 0.202851 0.227027
vt 0.246608 0.214804
vt 0.246608 0.195493
vt 0.202851 0.217371
vt 0.202851 0.217371
vt 0.246608 0.195493
vt 0.500000 0.500000
vt 0.000000 1.000000
vt 0.000000 0.500000
vt 0.500000 1.000000
vt -0.000000 0.500000
vt 0.500000 0.500000
vt 0.500000 1.000000
vt 0.000000 0.500000
vt 0.500000 0.500000
vt 0.240045 0.217371
vt 0.221448 0.238703
vt 0.221448 0.250189
vt 0.196288 0.304885
vt 0.177691 0.304885
vt 0.240045 0.228037
vt 0.221448 0.261128
vt 0.240045 0.228037
vt 0.240045 0.238703
vt 0.240045 0.261128
vt 0.246608 0.304885
vt 0.246608 0.348642
vt 0.202851 0.304885
vt 0.290365 0.304885
vt 0.202851 0.250189
vt 0.225277 0.348642
vt 0.221448 0.217371
vt 0.393324 0.570250
vt 0.246608 0.334159
vt 0.373573 0.585064
vt 0.383449 0.577367
vt 0.393324 0.601546
vt 0.159094 0.261128
vt 0.202851 0.227027
vt 0.500000 1.000000
vt 0.000000 1.000000
vt 0.000000 1.000000
vt 0.196288 0.304885
vn 0.0000 0.0000 1.0000
vn -0.7071 0.0000 0.7071
vn -0.7071 0.0000 -0.7071
vn 0.5773 -0.5773 -0.5773
vn 0.0000 -0.7071 0.7071
vn 0.0000 -0.7071 -0.7071
vn 0.7071 0.0000 -0.7071
vn 0.7071 0.0000 0.7071
vn 0.0000 0.0000 -1.0000
vn -0.5773 -0.5773 0.5773
vn -0.5773 -0.5773 -0.5773
vn 0.3015 -0.3015 0.9045
vn 0.3015 0.3015 0.9045
vn -0.2122 -0.1560 0.9647
vn 0.2122 -0.1560 0.9647
vn -0.3473 -0.6197 0.7038
vn -0.4425 0.0000 0.8968
vn 0.2122 0.1560 0.9647
vn 0.4425 0.0000 0.8968
vn -0.2122 0.1560 0.9647
vn 0.3473 0.6197 0.7038
vn -0.3472 0.6197 0.7038
vn 0.3472 -0.6197 0.7038
vn 0.5773 -0.5773 0.5773
vn -0.3015 0.3015 0.9045
vn -0.3015 -0.3015 0.9045
vn -0.5773 0.5773 0.5773
vn 0.5773 0.5773 0.5773
vn -0.5410 -0.2078 0.8149
vn -0.6135 0.7896 0.0000
vn -0.5410 -0.2078 -0.8149
vn 0.0000 1.0000 0.0000
vn 0.5410 -0.2078 -0.8149
vn 0.0000 -0.2471 -0.9690
vn 0.6135 0.7896 0.0000
vn 0.5410 -0.2078 0.8149
vn 0.0000 -0.2471 0.9690
vn -0.4426 0.8846 -0.1466
vn -0.1867 0.7211 -0.6671
vn 0.4426 0.8846 -0.1466
vn 0.1867 0.7211 -0.6671
vn 0.5773 0.5773 -0.5773
vn -0.5773 0.5773 -0.5773
s 1
f 10/1/1 22/2/2 25/3/1
f 7/4/2 24/5/3 22/2/2
f 2/6/4 17/7/5 20/8/6
f 1/9/7 23/10/8 21/11/7
f 18/12/9 21/13/7 30/14/9
f 5/15/3 26/16/9 24/17/3
f 11/18/6 8/19/10 6/20/11
f 15/21/1 25/3/1 27/22/1
f 19/23/1 27/22/1 29/24/1
f 12/25/9 28/26/9 26/16/9
f 16/27/6 9/28/5 11/18/6
f 3/29/8 29/24/1 23/30/8
f 14/31/9 30/14/9 28/26/9
f 20/8/6 13/32/5 16/27/6
f 28/26/9 47/33/9 45/34/9
f 46/35/1 54/36/12 29/24/1
f 26/16/9 45/34/9 43/37/9
f 46/35/1 59/38/13 44/39/1
f 25/3/1 34/40/14 27/22/1
f 24/17/3 43/37/9 41/41/3
f 30/14/9 39/42/7 47/33/9
f 21/11/7 40/43/8 39/44/7
f 22/2/2 41/45/3 48/46/2
f 48/46/2 62/47/12 22/2/2
f 33/48/15 38/49/16 34/40/14
f 44/39/1 34/40/14 50/50/17
f 42/51/1 31/52/18 49/53/19
f 13/32/5 31/54/18 9/28/5
f 31/52/18 51/55/19 49/53/19
f 34/40/14 52/56/17 50/50/17
f 32/57/20 35/58/21 31/54/18
f 50/50/17 36/59/22 32/60/20
f 49/53/19 37/61/23 33/48/15
f 52/62/17 35/63/21 36/64/22
f 42/51/1 33/48/15 25/3/1
f 44/39/1 32/60/20 13/65/5
f 42/51/1 8/66/10 9/67/5
f 48/46/2 6/20/11 8/66/10
f 39/44/7 4/68/24 2/69/4
f 47/33/9 2/6/4 20/70/6
f 41/41/3 11/71/6 6/72/11
f 46/35/1 13/65/5 17/73/5
f 43/37/9 16/74/6 11/71/6
f 40/75/8 17/73/5 4/76/24
f 45/34/9 20/70/6 16/74/6
f 23/10/8 55/77/25 40/43/8
f 29/24/1 53/78/26 23/30/8
f 40/75/8 56/79/13 46/35/1
f 29/24/1 60/80/25 46/35/1
f 44/39/1 58/81/12 27/22/1
f 27/22/1 57/82/26 29/24/1
f 22/2/2 63/83/26 25/3/1
f 25/3/1 64/84/25 42/51/1
f 42/51/1 61/85/13 48/46/2
f 51/86/19 38/87/16 37/88/23
f 62/47/12 92/89/10 63/83/26
f 57/82/26 89/90/27 60/80/25
f 55/91/25 85/92/28 56/79/13
f 65/93/29 66/94/30 67/95/31
f 73/96/32 69/97/33 71/98/34
f 69/99/33 70/100/35 68/101/36
f 73/102/32 65/103/29 72/104/37
f 69/99/33 72/105/37 71/106/34
f 71/106/34 65/107/29 67/108/31
f 70/109/35 72/104/37 68/110/36
f 67/111/31 76/112/38 75/113/39
f 77/114/40 80/115/27 76/116/38
f 67/117/31 74/118/41 71/119/34
f 71/98/34 77/120/40 73/96/32
f 73/102/32 76/121/38 66/122/30
f 75/123/39 78/124/42 74/125/41
f 77/126/40 78/127/42 81/128/28
f 76/129/38 79/130/43 75/131/39
f 80/132/27 78/127/42 79/130/43
f 93/133/27 91/134/24 90/135/28
f 85/136/28 82/137/10 83/138/24
f 88/139/28 86/140/10 87/141/24
f 54/36/12 82/142/10 53/78/26
f 60/80/25 88/143/28 59/38/13
f 63/83/26 93/144/27 64/84/25
f 53/145/26 84/146/27 55/77/25
f 58/81/12 86/147/10 57/82/26
f 64/84/25 90/148/28 61/85/13
f 56/79/13 83/149/24 54/36/12
f 59/38/13 87/150/24 58/81/12
f 61/85/13 91/151/24 62/47/12
f 10/1/1 7/4/2 22/2/2
f 7/4/2 5/152/3 24/5/3
f 2/6/4 4/153/24 17/7/5
f 1/9/7 3/154/8 23/10/8
f 18/12/9 1/155/7 21/13/7
f 5/15/3 12/25/9 26/16/9
f 11/18/6 9/28/5 8/19/10
f 15/21/1 10/1/1 25/3/1
f 19/23/1 15/21/1 27/22/1
f 12/25/9 14/31/9 28/26/9
f 16/27/6 13/32/5 9/28/5
f 3/29/8 19/23/1 29/24/1
f 14/31/9 18/12/9 30/14/9
f 20/8/6 17/7/5 13/32/5
f 28/26/9 30/14/9 47/33/9
f 46/35/1 56/79/13 54/36/12
f 26/16/9 28/26/9 45/34/9
f 46/35/1 60/80/25 59/38/13
f 25/3/1 33/48/15 34/40/14
f 24/17/3 26/16/9 43/37/9
f 30/14/9 21/13/7 39/42/7
f 21/11/7 23/10/8 40/43/8
f 22/2/2 24/5/3 41/45/3
f 48/46/2 61/85/13 62/47/12
f 33/48/15 37/61/23 38/49/16
f 44/39/1 27/22/1 34/40/14
f 42/51/1 9/67/5 31/52/18
f 13/32/5 32/57/20 31/54/18
f 31/52/18 35/156/21 51/55/19
f 34/40/14 38/49/16 52/56/17
f 32/57/20 36/157/22 35/58/21
f 50/50/17 52/56/17 36/59/22
f 49/53/19 51/55/19 37/61/23
f 52/62/17 51/86/19 35/63/21
f 42/51/1 49/53/19 33/48/15
f 44/39/1 50/50/17 32/60/20
f 42/51/1 48/46/2 8/66/10
f 48/46/2 41/45/3 6/20/11
f 39/44/7 40/43/8 4/68/24
f 47/33/9 39/42/7 2/6/4
f 41/41/3 43/37/9 11/71/6
f 46/35/1 44/39/1 13/65/5
f 43/37/9 45/34/9 16/74/6
f 40/75/8 46/35/1 17/73/5
f 45/34/9 47/33/9 20/70/6
f 23/10/8 53/145/26 55/77/25
f 29/24/1 54/36/12 53/78/26
f 40/75/8 55/91/25 56/79/13
f 29/24/1 57/82/26 60/80/25
f 44/39/1 59/38/13 58/81/12
f 27/22/1 58/81/12 57/82/26
f 22/2/2 62/47/12 63/83/26
f 25/3/1 63/83/26 64/84/25
f 42/51/1 64/84/25 61/85/13
f 51/86/19 52/62/17 38/87/16
f 62/47/12 91/151/24 92/89/10
f 57/82/26 86/147/10 89/90/27
f 55/91/25 84/158/27 85/92/28
f 73/96/32 70/109/35 69/97/33
f 73/102/32 66/122/30 65/103/29
f 69/99/33 68/101/36 72/105/37
f 71/106/34 72/105/37 65/107/29
f 70/109/35 73/102/32 72/104/37
f 67/111/31 66/159/30 76/112/38
f 77/114/40 81/160/28 80/115/27
f 67/117/31 75/161/39 74/118/41
f 71/98/34 74/162/41 77/120/40
f 73/102/32 77/163/40 76/121/38
f 75/123/39 79/164/43 78/124/42
f 77/126/40 74/165/41 78/127/42
f 76/129/38 80/132/27 79/130/43
f 80/132/27 81/160/28 78/127/42
f 93/133/27 92/166/10 91/134/24
f 85/136/28 84/167/27 82/137/10
f 88/139/28 89/168/27 86/140/10
f 54/36/12 83/149/24 82/142/10
f 60/80/25 89/90/27 88/143/28
f 63/83/26 92/89/10 93/144/27
f 53/145/26 82/169/10 84/146/27
f 58/81/12 87/150/24 86/147/10
f 64/84/25 93/144/27 90/148/28
f 56/79/13 85/92/28 83/149/24
f 59/38/13 88/143/28 87/150/24
f 61/85/13 90/148/28 91/151/24
