# Blender v2.80 (sub 35) OBJ File: 'rocks.blend'
# www.blender.org
o Cube
v -0.135005 -0.099684 0.006801
v -0.206584 -0.094658 0.236780
v -0.320016 0.040008 0.072349
v -0.155119 0.123238 -0.082317
v 0.060226 0.040008 -0.013471
v 0.028416 -0.094658 0.183741
v -0.270938 0.131370 0.289799
v -0.239128 0.266036 0.092587
v -0.004128 0.266036 0.039548
v 0.109304 0.131370 0.203979
v -0.055594 0.048140 0.358645
v -0.075707 0.271062 0.269528
v 0.212305 0.325537 -0.039875
v 0.330512 0.037106 -0.039875
v 0.182277 0.144795 -0.292054
v -0.057568 0.319035 -0.195729
v -0.057568 0.319035 0.115979
v 0.182277 0.144795 0.212304
v 0.133693 -0.147657 -0.195729
v -0.106152 0.026583 -0.292054
v -0.254387 0.134272 -0.039875
v -0.106152 0.026583 0.212304
v 0.133693 -0.147657 0.115979
v -0.136180 -0.154159 -0.039875
vt 0.811638 0.710341
vt 0.789916 0.672717
vt 0.768193 0.710341
vt 0.659583 0.672717
vt 0.637861 0.710341
vt 0.681305 0.710341
vt 0.833360 0.672717
vt 0.855082 0.710341
vt 0.746471 0.672717
vt 0.724749 0.710341
vt 0.703027 0.672717
vt 0.833360 0.747965
vt 0.789916 0.747965
vt 0.659583 0.747965
vt 0.876804 0.747965
vt 0.703027 0.747965
vt 0.746471 0.747965
vt 0.855082 0.785590
vt 0.811638 0.785590
vt 0.768193 0.785590
vt 0.681305 0.785590
vt 0.724749 0.785590
vt 0.746471 0.747965
vt 0.703027 0.747965
vt 0.724749 0.785590
vt 0.659583 0.747965
vt 0.681305 0.785590
vt 0.789916 0.747965
vt 0.768193 0.785590
vt 0.833360 0.747965
vt 0.811638 0.785590
vt 0.876804 0.747965
vt 0.855082 0.785590
vt 0.724749 0.710341
vt 0.768193 0.710341
vt 0.855082 0.710341
vt 0.681305 0.710341
vt 0.637861 0.710341
vt 0.811638 0.710341
vt 0.746471 0.672717
vt 0.703027 0.672717
vt 0.659583 0.672717
vt 0.789916 0.672717
vt 0.833360 0.672717
vn 0.0053 -0.9997 0.0235
vn -0.5384 -0.3543 -0.7646
vn -0.6326 -0.7532 -0.1804
vn 0.4938 -0.7532 -0.4347
vn 0.1578 -0.3543 -0.9217
vn -0.8815 -0.3302 0.3377
vn 0.1507 -0.7291 0.6676
vn -0.3974 -0.3153 0.8618
vn -0.7290 0.3153 -0.6076
vn -0.9410 0.3302 0.0737
vn 0.3974 0.3153 -0.8618
vn -0.1507 0.7291 -0.6676
vn 0.9410 -0.3302 -0.0737
vn 0.7290 -0.3153 0.6076
vn 0.8815 0.3302 -0.3377
vn -0.4938 0.7532 0.4347
vn -0.1578 0.3543 0.9217
vn 0.5384 0.3543 0.7646
vn -0.0053 0.9997 -0.0235
vn 0.6326 0.7532 0.1804
vn 0.3153 0.7532 -0.5774
vn -0.0241 0.9997 0.0000
vn 0.8644 0.3543 -0.3568
vn 0.8644 0.3543 0.3568
vn 0.3153 0.7532 0.5774
vn -0.1353 0.3302 -0.9342
vn 0.7532 -0.3153 -0.5774
vn -0.1353 0.3302 0.9342
vn 0.1353 -0.3302 -0.9342
vn -0.7532 0.3153 0.5774
vn -0.6844 0.7291 0.0000
vn 0.7532 -0.3153 0.5774
vn -0.7532 0.3153 -0.5774
vn 0.1353 -0.3302 0.9342
vn 0.6844 -0.7291 -0.0000
vn -0.3153 -0.7532 -0.5774
vn -0.8644 -0.3543 -0.3568
vn -0.8644 -0.3543 0.3568
vn 0.0241 -0.9997 0.0000
vn -0.3153 -0.7532 0.5774
s off
f 2/1/1 1/2/1 6/3/1
f 1/4/2 3/5/2 4/6/2
f 1/7/3 2/1/3 3/8/3
f 1/9/4 5/10/4 6/3/4
f 1/11/5 4/6/5 5/10/5
f 3/8/6 2/1/6 7/12/6
f 2/1/7 6/3/7 11/13/7
f 2/1/8 11/13/8 7/12/8
f 4/6/9 3/5/9 8/14/9
f 3/8/10 7/12/10 8/15/10
f 5/10/11 4/6/11 9/16/11
f 4/6/12 8/14/12 9/16/12
f 6/3/13 5/10/13 10/17/13
f 6/3/14 10/17/14 11/13/14
f 5/10/15 9/16/15 10/17/15
f 8/15/16 7/12/16 12/18/16
f 7/12/17 11/13/17 12/19/17
f 11/13/18 10/17/18 12/20/18
f 9/16/19 8/14/19 12/21/19
f 10/17/20 9/16/20 12/22/20
f 15/23/21 16/24/21 13/25/21
f 16/24/22 17/26/22 13/27/22
f 14/28/23 15/23/23 13/29/23
f 18/30/24 14/28/24 13/31/24
f 17/32/25 18/30/25 13/33/25
f 20/34/26 16/24/26 15/23/26
f 19/35/27 15/23/27 14/28/27
f 22/36/28 18/30/28 17/32/28
f 19/35/29 20/34/29 15/23/29
f 21/37/30 22/38/30 17/26/30
f 21/37/31 17/26/31 16/24/31
f 23/39/32 14/28/32 18/30/32
f 20/34/33 21/37/33 16/24/33
f 22/36/34 23/39/34 18/30/34
f 23/39/35 19/35/35 14/28/35
f 24/40/36 20/34/36 19/35/36
f 24/41/37 21/37/37 20/34/37
f 24/42/38 22/38/38 21/37/38
f 23/39/39 24/43/39 19/35/39
f 24/44/40 23/39/40 22/36/40
