# Blender v2.80 (sub 35) OBJ File: 'tree.blend'
# www.blender.org
o Cube
v -0.080277 1.092792 -0.234427
v 0.000000 0.000000 -0.092065
v -0.033658 1.092792 -0.112859
v 0.092065 0.000000 0.000000
v -0.201845 1.092792 -0.187809
v -0.092065 0.000000 0.000000
v -0.155226 1.092792 -0.066241
v 0.000000 0.000000 0.092065
v -0.040127 0.326399 -0.172320
v -0.040127 0.326399 0.011810
v 0.048858 0.311079 -0.080255
v -0.129113 0.341718 -0.080255
v 0.077103 0.718827 0.204422
v 0.052555 0.707805 -0.005476
v 0.148637 0.756425 0.112357
v -0.036590 0.672259 0.072004
v -0.018231 0.792401 0.174277
v 0.022589 0.801262 0.029287
v 0.056360 0.826872 0.082211
v -0.066936 0.769059 0.109190
v -0.034935 1.018093 0.373159
v 0.037082 0.947645 0.438255
v -0.065734 0.910047 0.493231
v -0.140541 0.983621 0.426891
v 0.156702 0.999696 -0.344953
v 0.295735 0.970257 -0.306620
v 0.166227 1.029728 -0.224000
v 0.299914 1.001580 -0.185775
v -0.148887 0.993621 0.000000
v 0.211584 1.268999 0.261895
v -0.286573 1.268999 0.423759
v -0.594458 1.268999 0.000000
v -0.286573 1.268999 -0.423758
v 0.211584 1.268999 -0.261895
v -0.011202 1.714572 0.423759
v -0.509359 1.714572 0.261895
v -0.509359 1.714572 -0.261895
v -0.011202 1.714572 -0.423758
v 0.296683 1.714572 0.000000
v -0.148887 1.989950 0.000000
v 0.798332 1.149971 0.000000
v 0.886293 1.721245 0.333708
v 0.428684 1.281353 0.539955
v 0.145859 1.009477 0.000000
v 0.428684 1.281353 -0.539954
v 0.886293 1.721245 -0.333707
v 0.288182 1.933821 0.539955
v -0.169428 1.493929 0.333708
v -0.169428 1.493929 -0.333707
v 0.288182 1.933821 -0.539954
v 0.571007 2.205697 0.000000
v -0.081466 2.065203 0.000000
v 0.528129 1.089370 0.554758
v 0.616090 1.748735 0.500412
v 0.158481 1.506716 0.921684
v -0.124344 0.974289 0.635348
v 0.158481 0.887260 0.037106
v 0.616090 1.365893 -0.046283
v 0.017978 2.041168 0.547415
v -0.439631 1.562535 0.630805
v -0.439631 1.179693 0.084110
v 0.017979 1.421711 -0.337162
v 0.300804 1.954138 -0.050826
v -0.351669 1.839057 0.029764
v -0.045853 1.209802 -0.153749
v -0.211466 1.209802 -0.090240
v -0.109361 1.209802 -0.319362
v -0.274974 1.209802 -0.255853
v -0.047592 1.135102 0.508358
v 0.050516 1.064655 0.597039
v -0.089549 1.027056 0.671933
v -0.191461 1.100630 0.581557
v 0.207474 1.411502 -0.471451
v 0.396880 1.382063 -0.419229
v 0.220450 1.441534 -0.306676
v 0.402572 1.413386 -0.254602
vt 0.777182 0.740280
vt 0.777182 0.702739
vt 0.777182 0.702739
vt 0.777182 0.702739
vt 0.786955 0.740280
vt 0.777182 0.740280
vt 0.777182 0.777822
vt 0.786955 0.777822
vt 0.749413 0.815364
vt 0.749413 0.777822
vt 0.739640 0.740280
vt 0.749413 0.777822
vt 0.739640 0.777822
vt 0.824496 0.740280
vt 0.814724 0.777822
vt 0.814724 0.740280
vt 0.800672 0.740280
vt 0.786955 0.740280
vt 0.711871 0.740280
vt 0.725589 0.777822
vt 0.711871 0.777822
vt 0.763130 0.740280
vt 0.749413 0.740280
vt 0.749413 0.702739
vt 0.811140 0.777822
vt 0.800672 0.777822
vt 0.736057 0.740280
vt 0.725589 0.740280
vt 0.773599 0.777822
vt 0.763130 0.777822
vt 0.773599 0.702739
vt 0.763130 0.702739
vt 0.811140 0.740280
vt 0.736057 0.777822
vt 0.736057 0.777822
vt 0.773599 0.740280
vt 0.773599 0.740280
vt 0.739640 0.777822
vt 0.736057 0.777822
vt 0.739640 0.777822
vt 0.736057 0.777822
vt 0.773599 0.702739
vt 0.777182 0.740280
vt 0.811140 0.777822
vt 0.739640 0.740280
vt 0.813627 0.191988
vt 0.786470 0.239026
vt 0.840784 0.239026
vt 0.759313 0.191988
vt 0.732156 0.239026
vt 0.596371 0.191988
vt 0.569214 0.239026
vt 0.623528 0.239026
vt 0.650685 0.191988
vt 0.677842 0.239026
vt 0.704999 0.191988
vt 0.759313 0.286063
vt 0.813627 0.286063
vt 0.596371 0.286063
vt 0.650685 0.286063
vt 0.704999 0.286063
vt 0.867941 0.286063
vt 0.786470 0.333101
vt 0.840784 0.333101
vt 0.623528 0.333101
vt 0.677842 0.333101
vt 0.732156 0.333101
vt 0.813627 0.191988
vt 0.786470 0.239026
vt 0.840784 0.239026
vt 0.759313 0.191988
vt 0.732156 0.239026
vt 0.596371 0.191988
vt 0.569214 0.239026
vt 0.623528 0.239026
vt 0.650685 0.191988
vt 0.677842 0.239026
vt 0.704999 0.191988
vt 0.759313 0.286063
vt 0.813627 0.286063
vt 0.596371 0.286063
vt 0.650685 0.286063
vt 0.704999 0.286063
vt 0.867941 0.286063
vt 0.786470 0.333101
vt 0.840784 0.333101
vt 0.623528 0.333101
vt 0.677842 0.333101
vt 0.732156 0.333101
vt 0.813627 0.191988
vt 0.786470 0.239026
vt 0.840784 0.239026
vt 0.759313 0.191988
vt 0.732156 0.239026
vt 0.596371 0.191988
vt 0.569214 0.239026
vt 0.623528 0.239026
vt 0.650685 0.191988
vt 0.677842 0.239026
vt 0.704999 0.191988
vt 0.759313 0.286063
vt 0.813627 0.286063
vt 0.596371 0.286063
vt 0.650685 0.286063
vt 0.704999 0.286063
vt 0.867941 0.286063
vt 0.786470 0.333101
vt 0.840784 0.333101
vt 0.623528 0.333101
vt 0.677842 0.333101
vt 0.732156 0.333101
vt 0.786955 0.665197
vt 0.749413 0.702739
vt 0.749413 0.665197
vt 0.773599 0.740280
vt 0.773599 0.702739
vt 0.736057 0.740280
vt 0.739640 0.777822
vt 0.736057 0.777822
vt 0.786955 0.777822
vt 0.786955 0.740280
vt 0.786955 0.777822
vt 0.786955 0.702739
vt 0.739640 0.740280
vt 0.814724 0.777822
vt 0.811140 0.777822
vt 0.824496 0.777822
vt 0.824496 0.777822
vt 0.749413 0.740280
vt 0.749413 0.777822
vt 0.786955 0.702739
vt 0.786955 0.815364
vt 0.736057 0.740280
vt 0.739640 0.777822
vt 0.786955 0.702739
vt 0.814724 0.777822
vt 0.824496 0.740280
vt 0.749413 0.740280
vn -0.5058 0.6283 -0.5911
vn 0.4283 0.6757 0.6000
vn -0.8126 0.0903 0.5757
vn 0.0000 -1.0000 0.0000
vn 0.8577 -0.0820 -0.5076
vn -0.3096 -0.7096 -0.6329
vn -0.6872 -0.2359 -0.6872
vn 0.7046 -0.0839 -0.7046
vn -0.7045 0.0866 0.7045
vn 0.6842 0.2524 0.6842
vn -0.6091 0.4374 -0.6615
vn 0.7237 0.1213 -0.6793
vn -0.7238 -0.1111 0.6810
vn 0.6144 -0.4251 0.6646
vn -0.6686 0.0613 -0.7411
vn 0.6613 -0.7083 -0.2469
vn -0.5773 -0.4763 0.6632
vn -0.7506 -0.6484 0.1274
vn -0.2364 0.2211 0.9462
vn -0.7836 0.3771 -0.4937
vn 0.6361 0.7405 -0.2167
vn 0.5410 -0.5529 0.6337
vn -0.7719 -0.6028 0.2019
vn -0.7729 -0.0118 -0.6344
vn 0.0159 0.8309 0.5562
vn -0.8707 0.4889 -0.0528
vn 0.1876 -0.7947 0.5774
vn 0.6071 -0.7947 0.0000
vn -0.4911 -0.7947 0.3568
vn -0.4911 -0.7947 -0.3568
vn 0.1876 -0.7947 -0.5774
vn 0.9822 -0.1876 0.0000
vn 0.3035 -0.1876 0.9342
vn -0.7946 -0.1876 0.5774
vn -0.7946 -0.1876 -0.5774
vn 0.3035 -0.1876 -0.9342
vn 0.7946 0.1876 0.5774
vn -0.3035 0.1876 0.9342
vn -0.9822 0.1876 0.0000
vn -0.3035 0.1876 -0.9342
vn 0.7946 0.1876 -0.5774
vn 0.4911 0.7947 0.3568
vn -0.1876 0.7947 0.5774
vn -0.6071 0.7947 0.0000
vn -0.1876 0.7947 -0.5774
vn 0.4911 0.7947 -0.3568
vn 0.6859 -0.4429 0.5774
vn 0.9884 -0.1522 0.0000
vn 0.1966 -0.9132 0.3568
vn 0.1966 -0.9132 -0.3568
vn 0.6859 -0.4429 -0.5774
vn 0.8381 0.5455 0.0000
vn 0.3488 0.0751 0.9342
vn -0.4429 -0.6859 0.5774
vn -0.4429 -0.6859 -0.5774
vn 0.3488 0.0751 -0.9342
vn 0.4429 0.6859 0.5774
vn -0.3488 -0.0751 0.9342
vn -0.8381 -0.5455 -0.0000
vn -0.3488 -0.0751 -0.9342
vn 0.4429 0.6859 -0.5774
vn -0.1966 0.9132 0.3568
vn -0.6859 0.4429 0.5774
vn -0.9884 0.1522 -0.0000
vn -0.6859 0.4429 -0.5774
vn -0.1966 0.9132 -0.3568
vn 0.6859 -0.0316 0.7270
vn 0.9884 -0.1247 0.0873
vn 0.1966 -0.5434 0.8161
vn 0.1966 -0.9527 0.2316
vn 0.6859 -0.6940 -0.2189
vn 0.8381 0.4468 -0.3129
vn 0.3488 0.5974 0.7221
vn -0.4429 -0.2307 0.8664
vn -0.4429 -0.8931 -0.0795
vn 0.3488 -0.4743 -0.8083
vn 0.4429 0.8931 0.0795
vn -0.3488 0.4743 0.8083
vn -0.8381 -0.4468 0.3129
vn -0.3488 -0.5974 -0.7221
vn 0.4429 0.2307 -0.8664
vn -0.1966 0.9527 -0.2316
vn -0.6859 0.6940 0.2189
vn -0.9884 0.1247 -0.0873
vn -0.6859 0.0316 -0.7270
vn -0.1966 0.5434 -0.8161
vn 0.0000 1.0000 0.0000
vn 0.0807 0.8220 0.5637
vn 0.2027 0.9607 -0.1898
vn 0.9707 -0.2400 0.0121
vn 0.7501 0.5005 -0.4323
vn -0.8742 -0.3514 0.3352
vn 0.3365 0.3417 0.8775
vn -0.9890 0.1381 0.0527
vn 0.4714 -0.7077 0.5262
vn 0.1932 -0.3027 -0.9333
vn -0.2841 -0.6085 -0.7410
vn 0.9333 -0.0278 -0.3579
vn -0.4680 0.6238 -0.6260
vn 0.2788 0.6276 0.7269
vn -0.9320 -0.0605 0.3574
vn 0.9337 0.0056 -0.3580
vn -0.2569 -0.6966 -0.6699
vn -0.7168 -0.2483 -0.6515
vn 0.7093 -0.0848 -0.6997
vn -0.7090 0.0875 0.6998
vn 0.7149 0.2661 0.6467
vn -0.6806 0.4550 -0.5743
vn 0.7456 0.1167 -0.6561
vn -0.7349 -0.1090 0.6693
vn 0.7860 -0.4453 0.4289
vn -0.6779 0.0686 -0.7319
vn 0.7956 -0.5925 0.1261
vn -0.6347 -0.4424 0.6336
vn -0.6362 -0.7498 0.1818
vn -0.2263 0.2152 0.9500
vn -0.5147 0.5451 -0.6618
vn 0.7633 0.6232 -0.1701
vn 0.8034 -0.3510 0.4809
vn -0.7215 -0.6194 0.3094
vn -0.0522 -0.8744 -0.4823
vn 0.2825 0.6656 0.6907
vn -0.7447 0.6475 0.1618
vn 0.0910 0.8201 0.5650
vn 0.2020 0.9606 -0.1910
vn 0.9724 -0.2316 0.0264
vn 0.7974 0.4913 -0.3505
vn -0.9893 0.1390 0.0434
vn 0.5160 -0.7099 0.4795
vn 0.2075 -0.3105 -0.9276
s off
f 24/1/1 69/2/1 21/3/1
f 19/4/2 7/5/2 17/6/2
f 7/5/3 20/7/3 17/6/3
f 2/8/4 8/9/4 6/10/4
f 18/11/5 3/12/5 19/13/5
f 5/14/6 18/15/6 20/16/6
f 12/17/7 2/8/7 6/18/7
f 2/19/8 11/20/8 4/21/8
f 10/22/9 6/10/9 8/23/9
f 4/24/10 10/22/10 8/23/10
f 12/17/11 14/25/11 9/26/11
f 14/27/12 11/20/12 9/28/12
f 10/22/13 16/29/13 12/30/13
f 15/31/14 10/22/14 11/32/14
f 16/33/15 18/15/15 14/25/15
f 14/27/16 28/34/16 15/35/16
f 17/6/17 16/29/17 13/36/17
f 17/6/18 23/37/18 24/1/18
f 27/38/19 76/39/19 75/40/19
f 17/6/20 21/3/20 19/4/20
f 19/13/21 22/41/21 15/35/21
f 13/36/22 22/42/22 23/37/22
f 23/37/23 72/43/23 24/1/23
f 18/15/24 26/44/24 14/25/24
f 19/13/25 28/34/25 27/38/25
f 18/11/26 27/38/26 25/45/26
f 29/46/27 30/47/27 31/48/27
f 30/47/28 29/49/28 34/50/28
f 29/51/29 31/52/29 32/53/29
f 29/54/30 32/53/30 33/55/30
f 29/56/31 33/55/31 34/50/31
f 30/47/32 34/50/32 39/57/32
f 31/48/33 30/47/33 35/58/33
f 32/53/34 31/52/34 36/59/34
f 33/55/35 32/53/35 37/60/35
f 34/50/36 33/55/36 38/61/36
f 30/47/37 39/57/37 35/58/37
f 31/48/38 35/58/38 36/62/38
f 32/53/39 36/59/39 37/60/39
f 33/55/40 37/60/40 38/61/40
f 34/50/41 38/61/41 39/57/41
f 35/58/42 39/57/42 40/63/42
f 36/62/43 35/58/43 40/64/43
f 37/60/44 36/59/44 40/65/44
f 38/61/45 37/60/45 40/66/45
f 39/57/46 38/61/46 40/67/46
f 41/68/47 42/69/47 43/70/47
f 42/69/48 41/71/48 46/72/48
f 41/73/49 43/74/49 44/75/49
f 41/76/50 44/75/50 45/77/50
f 41/78/51 45/77/51 46/72/51
f 42/69/52 46/72/52 51/79/52
f 43/70/53 42/69/53 47/80/53
f 44/75/54 43/74/54 48/81/54
f 45/77/55 44/75/55 49/82/55
f 46/72/56 45/77/56 50/83/56
f 42/69/57 51/79/57 47/80/57
f 43/70/58 47/80/58 48/84/58
f 44/75/59 48/81/59 49/82/59
f 45/77/60 49/82/60 50/83/60
f 46/72/61 50/83/61 51/79/61
f 47/80/62 51/79/62 52/85/62
f 48/84/63 47/80/63 52/86/63
f 49/82/64 48/81/64 52/87/64
f 50/83/65 49/82/65 52/88/65
f 51/79/66 50/83/66 52/89/66
f 53/90/67 54/91/67 55/92/67
f 54/91/68 53/93/68 58/94/68
f 53/95/69 55/96/69 56/97/69
f 53/98/70 56/97/70 57/99/70
f 53/100/71 57/99/71 58/94/71
f 54/91/72 58/94/72 63/101/72
f 55/92/73 54/91/73 59/102/73
f 56/97/74 55/96/74 60/103/74
f 57/99/75 56/97/75 61/104/75
f 58/94/76 57/99/76 62/105/76
f 54/91/77 63/101/77 59/102/77
f 55/92/78 59/102/78 60/106/78
f 56/97/79 60/103/79 61/104/79
f 57/99/80 61/104/80 62/105/80
f 58/94/81 62/105/81 63/101/81
f 59/102/82 63/101/82 64/107/82
f 60/106/83 59/102/83 64/108/83
f 61/104/84 60/103/84 64/109/84
f 62/105/85 61/104/85 64/110/85
f 63/101/86 62/105/86 64/111/86
f 68/112/87 65/113/87 67/114/87
f 69/2/88 71/115/88 70/116/88
f 74/117/89 75/40/89 76/39/89
f 28/34/90 74/117/90 76/39/90
f 22/41/91 69/118/91 70/119/91
f 5/120/92 66/121/92 68/122/92
f 7/5/93 65/123/93 66/121/93
f 25/45/94 75/40/94 73/124/94
f 23/37/95 70/116/95 71/115/95
f 25/125/96 74/126/96 26/44/96
f 5/14/97 67/127/97 1/128/97
f 1/129/98 65/130/98 3/12/98
f 24/1/99 72/43/99 69/2/99
f 19/4/100 3/131/100 7/5/100
f 7/5/101 5/120/101 20/7/101
f 2/8/4 4/132/4 8/9/4
f 18/11/102 1/129/102 3/12/102
f 5/14/103 1/128/103 18/15/103
f 12/17/104 9/26/104 2/8/104
f 2/19/105 9/28/105 11/20/105
f 10/22/106 12/30/106 6/10/106
f 4/24/107 11/32/107 10/22/107
f 12/17/108 16/33/108 14/25/108
f 14/27/109 15/35/109 11/20/109
f 10/22/110 13/36/110 16/29/110
f 15/31/111 13/36/111 10/22/111
f 16/33/112 20/16/112 18/15/112
f 14/27/113 26/133/113 28/34/113
f 17/6/114 20/7/114 16/29/114
f 17/6/115 13/36/115 23/37/115
f 27/38/116 28/34/116 76/39/116
f 17/6/117 24/1/117 21/3/117
f 19/13/118 21/134/118 22/41/118
f 13/36/119 15/31/119 22/42/119
f 23/37/120 71/115/120 72/43/120
f 18/15/121 25/125/121 26/44/121
f 19/13/122 15/35/122 28/34/122
f 18/11/123 19/13/123 27/38/123
f 68/112/87 66/135/87 65/113/87
f 69/2/124 72/43/124 71/115/124
f 74/117/125 73/124/125 75/40/125
f 28/34/126 26/133/126 74/117/126
f 22/41/127 21/134/127 69/118/127
f 5/120/92 7/5/92 66/121/92
f 7/5/93 3/131/93 65/123/93
f 25/45/128 27/38/128 75/40/128
f 23/37/129 22/42/129 70/116/129
f 25/125/130 73/136/130 74/126/130
f 5/14/97 68/137/97 67/127/97
f 1/129/98 67/138/98 65/130/98
