# Blender v2.80 (sub 35) OBJ File: 'sign.blend'
# www.blender.org
o Cube.001
v 0.090391 0.000000 -0.100000
v 0.090391 1.000000 -0.100000
v 0.090391 0.000000 0.100000
v 0.090391 1.000000 0.100000
v -0.090391 0.000000 -0.100000
v -0.090391 1.000000 -0.100000
v -0.090391 0.000000 0.100000
v -0.090391 1.000000 0.100000
v -0.800000 1.000000 0.100000
v -0.800000 2.000000 0.100000
v -0.800000 1.000000 -0.100000
v -0.800000 2.000000 -0.100000
v 0.800000 1.000000 0.100000
v 0.800000 2.000000 0.100000
v 0.800000 1.000000 -0.100000
v 0.800000 2.000000 -0.100000
vt 0.843750 0.500000
vt 1.000000 1.000000
vt 0.843750 1.000000
vt 0.843750 -0.000000
vt 1.000000 0.500000
vt 0.843750 0.500000
vt 0.843750 -0.000000
vt 1.000000 0.500000
vt 0.843750 0.500000
vt 0.843750 -0.000000
vt 1.000000 0.500000
vt 0.843750 0.500000
vt 0.539488 0.185384
vt 0.466757 0.265847
vt 0.466757 0.185384
vt 0.843750 0.500000
vt 1.000000 1.000000
vt 0.843750 1.000000
vt 0.859375 0.000000
vt 0.000000 0.500000
vt 0.000000 0.000000
vt 1.000000 1.000000
vt 0.843750 0.500000
vt 1.000000 0.500000
vt 0.859375 1.000000
vt 0.000000 0.500000
vt 0.859375 0.500000
vt 0.843750 0.500000
vt 1.000000 1.000000
vt 0.843750 1.000000
vt 1.000000 1.000000
vt 0.843750 0.500000
vt 1.000000 0.500000
vt 1.000000 0.500000
vt 1.000000 -0.000000
vt 1.000000 -0.000000
vt 1.000000 -0.000000
vt 0.539488 0.265847
vt 1.000000 0.500000
vt 0.859375 0.500000
vt 0.843750 1.000000
vt 0.000000 1.000000
vt 1.000000 0.500000
vt 0.843750 1.000000
vn 1.0000 0.0000 0.0000
vn 0.0000 0.0000 1.0000
vn -1.0000 0.0000 0.0000
vn 0.0000 0.0000 -1.0000
vn 0.0000 -1.0000 0.0000
vn 0.0000 1.0000 0.0000
s off
f 2/1/1 3/2/1 1/3/1
f 4/4/2 7/5/2 3/6/2
f 8/7/3 5/8/3 7/9/3
f 6/10/4 1/11/4 5/12/4
f 7/13/5 1/14/5 3/15/5
f 10/16/3 11/17/3 9/18/3
f 12/19/4 15/20/4 11/21/4
f 16/22/1 13/23/1 15/24/1
f 14/25/2 9/26/2 13/27/2
f 15/28/5 9/29/5 11/30/5
f 12/31/6 14/32/6 16/33/6
f 2/1/1 4/34/1 3/2/1
f 4/4/2 8/35/2 7/5/2
f 8/7/3 6/36/3 5/8/3
f 6/10/4 2/37/4 1/11/4
f 7/13/5 5/38/5 1/14/5
f 10/16/3 12/39/3 11/17/3
f 12/19/4 16/40/4 15/20/4
f 16/22/1 14/41/1 13/23/1
f 14/25/2 10/42/2 9/26/2
f 15/28/5 13/43/5 9/29/5
f 12/31/6 10/44/6 14/32/6
